<?xml version="1.0" encoding="UTF-8" standalone="no"?>
<!DOCTYPE svg PUBLIC "-//W3C//DTD SVG 1.1//EN"
 "http://www.w3.org/Graphics/SVG/1.1/DTD/svg11.dtd">
<!-- Generated by graphviz version 8.0.3 (20230416.2022)
 -->
<!-- Title: Tree Pages: 1 -->
<svg width="971pt" height="433pt"
 viewBox="0.00 0.00 971.00 433.00" xmlns="http://www.w3.org/2000/svg" xmlns:xlink="http://www.w3.org/1999/xlink">
<g id="graph0" class="graph" transform="scale(1 1) rotate(0) translate(4 429)">
<title>Tree</title>
<polygon fill="white" stroke="none" points="-4,4 -4,-429 967,-429 967,4 -4,4"/>
<!-- 0 -->
<g id="node1" class="node">
<title>0</title>
<path fill="#c8e4f8" stroke="black" d="M368.5,-425C368.5,-425 245.5,-425 245.5,-425 239.5,-425 233.5,-419 233.5,-413 233.5,-413 233.5,-354 233.5,-354 233.5,-348 239.5,-342 245.5,-342 245.5,-342 368.5,-342 368.5,-342 374.5,-342 380.5,-348 380.5,-354 380.5,-354 380.5,-413 380.5,-413 380.5,-419 374.5,-425 368.5,-425"/>
<text text-anchor="middle" x="307" y="-409.8" font-family="Helvetica,sans-Serif" font-size="14.00">preco &lt;= 59982.246</text>
<text text-anchor="middle" x="307" y="-394.8" font-family="Helvetica,sans-Serif" font-size="14.00">gini = 0.487</text>
<text text-anchor="middle" x="307" y="-379.8" font-family="Helvetica,sans-Serif" font-size="14.00">samples = 10000</text>
<text text-anchor="middle" x="307" y="-364.8" font-family="Helvetica,sans-Serif" font-size="14.00">value = [4200, 5800]</text>
<text text-anchor="middle" x="307" y="-349.8" font-family="Helvetica,sans-Serif" font-size="14.00">class = sim</text>
</g>
<!-- 1 -->
<g id="node2" class="node">
<title>1</title>
<path fill="#52a9e8" stroke="black" d="M275.5,-306C275.5,-306 152.5,-306 152.5,-306 146.5,-306 140.5,-300 140.5,-294 140.5,-294 140.5,-235 140.5,-235 140.5,-229 146.5,-223 152.5,-223 152.5,-223 275.5,-223 275.5,-223 281.5,-223 287.5,-229 287.5,-235 287.5,-235 287.5,-294 287.5,-294 287.5,-300 281.5,-306 275.5,-306"/>
<text text-anchor="middle" x="214" y="-290.8" font-family="Helvetica,sans-Serif" font-size="14.00">preco &lt;= 40083.385</text>
<text text-anchor="middle" x="214" y="-275.8" font-family="Helvetica,sans-Serif" font-size="14.00">gini = 0.198</text>
<text text-anchor="middle" x="214" y="-260.8" font-family="Helvetica,sans-Serif" font-size="14.00">samples = 4347</text>
<text text-anchor="middle" x="214" y="-245.8" font-family="Helvetica,sans-Serif" font-size="14.00">value = [484, 3863]</text>
<text text-anchor="middle" x="214" y="-230.8" font-family="Helvetica,sans-Serif" font-size="14.00">class = sim</text>
</g>
<!-- 0&#45;&gt;1 -->
<g id="edge1" class="edge">
<title>0&#45;&gt;1</title>
<path fill="none" stroke="black" d="M274.47,-341.58C267.57,-332.89 260.21,-323.63 253.08,-314.67"/>
<polygon fill="black" stroke="black" points="255.31,-312.85 246.35,-307.2 249.83,-317.21 255.31,-312.85"/>
<text text-anchor="middle" x="243.51" y="-327.34" font-family="Helvetica,sans-Serif" font-size="14.00">True</text>
</g>
<!-- 6 -->
<g id="node7" class="node">
<title>6</title>
<path fill="#f3c3a0" stroke="black" d="M556,-306C556,-306 390,-306 390,-306 384,-306 378,-300 378,-294 378,-294 378,-235 378,-235 378,-229 384,-223 390,-223 390,-223 556,-223 556,-223 562,-223 568,-229 568,-235 568,-235 568,-294 568,-294 568,-300 562,-306 556,-306"/>
<text text-anchor="middle" x="473" y="-290.8" font-family="Helvetica,sans-Serif" font-size="14.00">km_por_ano &lt;= 24124.006</text>
<text text-anchor="middle" x="473" y="-275.8" font-family="Helvetica,sans-Serif" font-size="14.00">gini = 0.45</text>
<text text-anchor="middle" x="473" y="-260.8" font-family="Helvetica,sans-Serif" font-size="14.00">samples = 5653</text>
<text text-anchor="middle" x="473" y="-245.8" font-family="Helvetica,sans-Serif" font-size="14.00">value = [3716.0, 1937.0]</text>
<text text-anchor="middle" x="473" y="-230.8" font-family="Helvetica,sans-Serif" font-size="14.00">class = não</text>
</g>
<!-- 0&#45;&gt;6 -->
<g id="edge6" class="edge">
<title>0&#45;&gt;6</title>
<path fill="none" stroke="black" d="M365.06,-341.58C378.33,-332.23 392.53,-322.21 406.14,-312.63"/>
<polygon fill="black" stroke="black" points="407.82,-315.02 413.97,-306.4 403.78,-309.3 407.82,-315.02"/>
<text text-anchor="middle" x="410.71" y="-327.33" font-family="Helvetica,sans-Serif" font-size="14.00">False</text>
</g>
<!-- 2 -->
<g id="node3" class="node">
<title>2</title>
<path fill="#399de5" stroke="black" d="M110,-179.5C110,-179.5 12,-179.5 12,-179.5 6,-179.5 0,-173.5 0,-167.5 0,-167.5 0,-123.5 0,-123.5 0,-117.5 6,-111.5 12,-111.5 12,-111.5 110,-111.5 110,-111.5 116,-111.5 122,-117.5 122,-123.5 122,-123.5 122,-167.5 122,-167.5 122,-173.5 116,-179.5 110,-179.5"/>
<text text-anchor="middle" x="61" y="-164.3" font-family="Helvetica,sans-Serif" font-size="14.00">gini = 0.0</text>
<text text-anchor="middle" x="61" y="-149.3" font-family="Helvetica,sans-Serif" font-size="14.00">samples = 1935</text>
<text text-anchor="middle" x="61" y="-134.3" font-family="Helvetica,sans-Serif" font-size="14.00">value = [0, 1935]</text>
<text text-anchor="middle" x="61" y="-119.3" font-family="Helvetica,sans-Serif" font-size="14.00">class = sim</text>
</g>
<!-- 1&#45;&gt;2 -->
<g id="edge2" class="edge">
<title>1&#45;&gt;2</title>
<path fill="none" stroke="black" d="M160.49,-222.58C145.07,-210.79 128.29,-197.95 112.97,-186.24"/>
<polygon fill="black" stroke="black" points="115.7,-183.16 105.63,-179.86 111.44,-188.72 115.7,-183.16"/>
</g>
<!-- 3 -->
<g id="node4" class="node">
<title>3</title>
<path fill="#6bb6ec" stroke="black" d="M275.5,-187C275.5,-187 152.5,-187 152.5,-187 146.5,-187 140.5,-181 140.5,-175 140.5,-175 140.5,-116 140.5,-116 140.5,-110 146.5,-104 152.5,-104 152.5,-104 275.5,-104 275.5,-104 281.5,-104 287.5,-110 287.5,-116 287.5,-116 287.5,-175 287.5,-175 287.5,-181 281.5,-187 275.5,-187"/>
<text text-anchor="middle" x="214" y="-171.8" font-family="Helvetica,sans-Serif" font-size="14.00">preco &lt;= 41083.029</text>
<text text-anchor="middle" x="214" y="-156.8" font-family="Helvetica,sans-Serif" font-size="14.00">gini = 0.321</text>
<text text-anchor="middle" x="214" y="-141.8" font-family="Helvetica,sans-Serif" font-size="14.00">samples = 2412</text>
<text text-anchor="middle" x="214" y="-126.8" font-family="Helvetica,sans-Serif" font-size="14.00">value = [484, 1928]</text>
<text text-anchor="middle" x="214" y="-111.8" font-family="Helvetica,sans-Serif" font-size="14.00">class = sim</text>
</g>
<!-- 1&#45;&gt;3 -->
<g id="edge3" class="edge">
<title>1&#45;&gt;3</title>
<path fill="none" stroke="black" d="M214,-222.58C214,-214.7 214,-206.34 214,-198.17"/>
<polygon fill="black" stroke="black" points="217.5,-198.2 214,-188.2 210.5,-198.2 217.5,-198.2"/>
</g>
<!-- 4 -->
<g id="node5" class="node">
<title>4</title>
<path fill="#95cbf1" stroke="black" d="M114.5,-68C114.5,-68 25.5,-68 25.5,-68 19.5,-68 13.5,-62 13.5,-56 13.5,-56 13.5,-12 13.5,-12 13.5,-6 19.5,0 25.5,0 25.5,0 114.5,0 114.5,0 120.5,0 126.5,-6 126.5,-12 126.5,-12 126.5,-56 126.5,-56 126.5,-62 120.5,-68 114.5,-68"/>
<text text-anchor="middle" x="70" y="-52.8" font-family="Helvetica,sans-Serif" font-size="14.00">gini = 0.434</text>
<text text-anchor="middle" x="70" y="-37.8" font-family="Helvetica,sans-Serif" font-size="14.00">samples = 110</text>
<text text-anchor="middle" x="70" y="-22.8" font-family="Helvetica,sans-Serif" font-size="14.00">value = [35, 75]</text>
<text text-anchor="middle" x="70" y="-7.8" font-family="Helvetica,sans-Serif" font-size="14.00">class = sim</text>
</g>
<!-- 3&#45;&gt;4 -->
<g id="edge4" class="edge">
<title>3&#45;&gt;4</title>
<path fill="none" stroke="black" d="M160.38,-103.73C147.91,-94.24 134.64,-84.16 122.23,-74.72"/>
<polygon fill="black" stroke="black" points="124.87,-71.57 114.79,-68.3 120.63,-77.14 124.87,-71.57"/>
</g>
<!-- 5 -->
<g id="node6" class="node">
<title>5</title>
<path fill="#69b5eb" stroke="black" d="M271,-68C271,-68 157,-68 157,-68 151,-68 145,-62 145,-56 145,-56 145,-12 145,-12 145,-6 151,0 157,0 157,0 271,0 271,0 277,0 283,-6 283,-12 283,-12 283,-56 283,-56 283,-62 277,-68 271,-68"/>
<text text-anchor="middle" x="214" y="-52.8" font-family="Helvetica,sans-Serif" font-size="14.00">gini = 0.314</text>
<text text-anchor="middle" x="214" y="-37.8" font-family="Helvetica,sans-Serif" font-size="14.00">samples = 2302</text>
<text text-anchor="middle" x="214" y="-22.8" font-family="Helvetica,sans-Serif" font-size="14.00">value = [449, 1853]</text>
<text text-anchor="middle" x="214" y="-7.8" font-family="Helvetica,sans-Serif" font-size="14.00">class = sim</text>
</g>
<!-- 3&#45;&gt;5 -->
<g id="edge5" class="edge">
<title>3&#45;&gt;5</title>
<path fill="none" stroke="black" d="M214,-103.73C214,-95.7 214,-87.24 214,-79.11"/>
<polygon fill="black" stroke="black" points="217.5,-79.3 214,-69.3 210.5,-79.3 217.5,-79.3"/>
</g>
<!-- 7 -->
<g id="node8" class="node">
<title>7</title>
<path fill="#fcefe5" stroke="black" d="M546,-187C546,-187 400,-187 400,-187 394,-187 388,-181 388,-175 388,-175 388,-116 388,-116 388,-110 394,-104 400,-104 400,-104 546,-104 546,-104 552,-104 558,-110 558,-116 558,-116 558,-175 558,-175 558,-181 552,-187 546,-187"/>
<text text-anchor="middle" x="473" y="-171.8" font-family="Helvetica,sans-Serif" font-size="14.00">preco &lt;= 99974.41</text>
<text text-anchor="middle" x="473" y="-156.8" font-family="Helvetica,sans-Serif" font-size="14.00">gini = 0.498</text>
<text text-anchor="middle" x="473" y="-141.8" font-family="Helvetica,sans-Serif" font-size="14.00">samples = 3513</text>
<text text-anchor="middle" x="473" y="-126.8" font-family="Helvetica,sans-Serif" font-size="14.00">value = [1879.0, 1634.0]</text>
<text text-anchor="middle" x="473" y="-111.8" font-family="Helvetica,sans-Serif" font-size="14.00">class = não</text>
</g>
<!-- 6&#45;&gt;7 -->
<g id="edge7" class="edge">
<title>6&#45;&gt;7</title>
<path fill="none" stroke="black" d="M473,-222.58C473,-214.7 473,-206.34 473,-198.17"/>
<polygon fill="black" stroke="black" points="476.5,-198.2 473,-188.2 469.5,-198.2 476.5,-198.2"/>
</g>
<!-- 10 -->
<g id="node11" class="node">
<title>10</title>
<path fill="#e9965a" stroke="black" d="M791.5,-187C791.5,-187 660.5,-187 660.5,-187 654.5,-187 648.5,-181 648.5,-175 648.5,-175 648.5,-116 648.5,-116 648.5,-110 654.5,-104 660.5,-104 660.5,-104 791.5,-104 791.5,-104 797.5,-104 803.5,-110 803.5,-116 803.5,-116 803.5,-175 803.5,-175 803.5,-181 797.5,-187 791.5,-187"/>
<text text-anchor="middle" x="726" y="-171.8" font-family="Helvetica,sans-Serif" font-size="14.00">preco &lt;= 100076.957</text>
<text text-anchor="middle" x="726" y="-156.8" font-family="Helvetica,sans-Serif" font-size="14.00">gini = 0.243</text>
<text text-anchor="middle" x="726" y="-141.8" font-family="Helvetica,sans-Serif" font-size="14.00">samples = 2140</text>
<text text-anchor="middle" x="726" y="-126.8" font-family="Helvetica,sans-Serif" font-size="14.00">value = [1837, 303]</text>
<text text-anchor="middle" x="726" y="-111.8" font-family="Helvetica,sans-Serif" font-size="14.00">class = não</text>
</g>
<!-- 6&#45;&gt;10 -->
<g id="edge10" class="edge">
<title>6&#45;&gt;10</title>
<path fill="none" stroke="black" d="M561.49,-222.58C586.39,-211.06 613.47,-198.54 638.33,-187.04"/>
<polygon fill="black" stroke="black" points="639.5,-189.9 647.1,-182.52 636.56,-183.54 639.5,-189.9"/>
</g>
<!-- 8 -->
<g id="node9" class="node">
<title>8</title>
<path fill="#f9e0ce" stroke="black" d="M459,-68C459,-68 313,-68 313,-68 307,-68 301,-62 301,-56 301,-56 301,-12 301,-12 301,-6 307,0 313,0 313,0 459,0 459,0 465,0 471,-6 471,-12 471,-12 471,-56 471,-56 471,-62 465,-68 459,-68"/>
<text text-anchor="middle" x="386" y="-52.8" font-family="Helvetica,sans-Serif" font-size="14.00">gini = 0.49</text>
<text text-anchor="middle" x="386" y="-37.8" font-family="Helvetica,sans-Serif" font-size="14.00">samples = 2944</text>
<text text-anchor="middle" x="386" y="-22.8" font-family="Helvetica,sans-Serif" font-size="14.00">value = [1682.0, 1262.0]</text>
<text text-anchor="middle" x="386" y="-7.8" font-family="Helvetica,sans-Serif" font-size="14.00">class = não</text>
</g>
<!-- 7&#45;&gt;8 -->
<g id="edge8" class="edge">
<title>7&#45;&gt;8</title>
<path fill="none" stroke="black" d="M440.6,-103.73C433.65,-94.97 426.28,-85.7 419.29,-76.91"/>
<polygon fill="black" stroke="black" points="421.42,-74.95 412.46,-69.3 415.94,-79.31 421.42,-74.95"/>
</g>
<!-- 9 -->
<g id="node10" class="node">
<title>9</title>
<path fill="#a2d1f3" stroke="black" d="M631,-68C631,-68 501,-68 501,-68 495,-68 489,-62 489,-56 489,-56 489,-12 489,-12 489,-6 495,0 501,0 501,0 631,0 631,0 637,0 643,-6 643,-12 643,-12 643,-56 643,-56 643,-62 637,-68 631,-68"/>
<text text-anchor="middle" x="566" y="-52.8" font-family="Helvetica,sans-Serif" font-size="14.00">gini = 0.453</text>
<text text-anchor="middle" x="566" y="-37.8" font-family="Helvetica,sans-Serif" font-size="14.00">samples = 569</text>
<text text-anchor="middle" x="566" y="-22.8" font-family="Helvetica,sans-Serif" font-size="14.00">value = [197.0, 372.0]</text>
<text text-anchor="middle" x="566" y="-7.8" font-family="Helvetica,sans-Serif" font-size="14.00">class = sim</text>
</g>
<!-- 7&#45;&gt;9 -->
<g id="edge9" class="edge">
<title>7&#45;&gt;9</title>
<path fill="none" stroke="black" d="M507.63,-103.73C515.14,-94.88 523.1,-85.51 530.64,-76.63"/>
<polygon fill="black" stroke="black" points="533.91,-79.19 537.72,-69.3 528.58,-74.66 533.91,-79.19"/>
</g>
<!-- 11 -->
<g id="node12" class="node">
<title>11</title>
<path fill="#e68742" stroke="black" d="M779,-68C779,-68 673,-68 673,-68 667,-68 661,-62 661,-56 661,-56 661,-12 661,-12 661,-6 667,0 673,0 673,0 779,0 779,0 785,0 791,-6 791,-12 791,-12 791,-56 791,-56 791,-62 785,-68 779,-68"/>
<text text-anchor="middle" x="726" y="-52.8" font-family="Helvetica,sans-Serif" font-size="14.00">gini = 0.082</text>
<text text-anchor="middle" x="726" y="-37.8" font-family="Helvetica,sans-Serif" font-size="14.00">samples = 1809</text>
<text text-anchor="middle" x="726" y="-22.8" font-family="Helvetica,sans-Serif" font-size="14.00">value = [1732, 77]</text>
<text text-anchor="middle" x="726" y="-7.8" font-family="Helvetica,sans-Serif" font-size="14.00">class = não</text>
</g>
<!-- 10&#45;&gt;11 -->
<g id="edge11" class="edge">
<title>10&#45;&gt;11</title>
<path fill="none" stroke="black" d="M726,-103.73C726,-95.7 726,-87.24 726,-79.11"/>
<polygon fill="black" stroke="black" points="729.5,-79.3 726,-69.3 722.5,-79.3 729.5,-79.3"/>
</g>
<!-- 12 -->
<g id="node13" class="node">
<title>12</title>
<path fill="#95cbf1" stroke="black" d="M951,-68C951,-68 821,-68 821,-68 815,-68 809,-62 809,-56 809,-56 809,-12 809,-12 809,-6 815,0 821,0 821,0 951,0 951,0 957,0 963,-6 963,-12 963,-12 963,-56 963,-56 963,-62 957,-68 951,-68"/>
<text text-anchor="middle" x="886" y="-52.8" font-family="Helvetica,sans-Serif" font-size="14.00">gini = 0.433</text>
<text text-anchor="middle" x="886" y="-37.8" font-family="Helvetica,sans-Serif" font-size="14.00">samples = 331</text>
<text text-anchor="middle" x="886" y="-22.8" font-family="Helvetica,sans-Serif" font-size="14.00">value = [105.0, 226.0]</text>
<text text-anchor="middle" x="886" y="-7.8" font-family="Helvetica,sans-Serif" font-size="14.00">class = sim</text>
</g>
<!-- 10&#45;&gt;12 -->
<g id="edge12" class="edge">
<title>10&#45;&gt;12</title>
<path fill="none" stroke="black" d="M785.58,-103.73C799.5,-94.2 814.3,-84.07 828.15,-74.59"/>
<polygon fill="black" stroke="black" points="829.81,-77.01 836.09,-68.47 825.86,-71.23 829.81,-77.01"/>
</g>
</g>
</svg>
