<?xml version="1.0" encoding="UTF-8" standalone="no"?>
<!DOCTYPE svg PUBLIC "-//W3C//DTD SVG 1.1//EN"
 "http://www.w3.org/Graphics/SVG/1.1/DTD/svg11.dtd">
<!-- Generated by graphviz version 8.0.3 (20230416.2022)
 -->
<!-- Title: Tree Pages: 1 -->
<svg width="637pt" height="314pt"
 viewBox="0.00 0.00 637.00 314.00" xmlns="http://www.w3.org/2000/svg" xmlns:xlink="http://www.w3.org/1999/xlink">
<g id="graph0" class="graph" transform="scale(1 1) rotate(0) translate(4 310)">
<title>Tree</title>
<polygon fill="white" stroke="none" points="-4,4 -4,-310 633,-310 633,4 -4,4"/>
<!-- 0 -->
<g id="node1" class="node">
<title>0</title>
<path fill="#c8e4f8" stroke="black" d="M359.5,-306C359.5,-306 236.5,-306 236.5,-306 230.5,-306 224.5,-300 224.5,-294 224.5,-294 224.5,-235 224.5,-235 224.5,-229 230.5,-223 236.5,-223 236.5,-223 359.5,-223 359.5,-223 365.5,-223 371.5,-229 371.5,-235 371.5,-235 371.5,-294 371.5,-294 371.5,-300 365.5,-306 359.5,-306"/>
<text text-anchor="middle" x="298" y="-290.8" font-family="Helvetica,sans-Serif" font-size="14.00">preco &lt;= 59982.246</text>
<text text-anchor="middle" x="298" y="-275.8" font-family="Helvetica,sans-Serif" font-size="14.00">gini = 0.487</text>
<text text-anchor="middle" x="298" y="-260.8" font-family="Helvetica,sans-Serif" font-size="14.00">samples = 10000</text>
<text text-anchor="middle" x="298" y="-245.8" font-family="Helvetica,sans-Serif" font-size="14.00">value = [4200, 5800]</text>
<text text-anchor="middle" x="298" y="-230.8" font-family="Helvetica,sans-Serif" font-size="14.00">class = sim</text>
</g>
<!-- 1 -->
<g id="node2" class="node">
<title>1</title>
<path fill="#52a9e8" stroke="black" d="M266.5,-187C266.5,-187 143.5,-187 143.5,-187 137.5,-187 131.5,-181 131.5,-175 131.5,-175 131.5,-116 131.5,-116 131.5,-110 137.5,-104 143.5,-104 143.5,-104 266.5,-104 266.5,-104 272.5,-104 278.5,-110 278.5,-116 278.5,-116 278.5,-175 278.5,-175 278.5,-181 272.5,-187 266.5,-187"/>
<text text-anchor="middle" x="205" y="-171.8" font-family="Helvetica,sans-Serif" font-size="14.00">preco &lt;= 40083.385</text>
<text text-anchor="middle" x="205" y="-156.8" font-family="Helvetica,sans-Serif" font-size="14.00">gini = 0.198</text>
<text text-anchor="middle" x="205" y="-141.8" font-family="Helvetica,sans-Serif" font-size="14.00">samples = 4347</text>
<text text-anchor="middle" x="205" y="-126.8" font-family="Helvetica,sans-Serif" font-size="14.00">value = [484, 3863]</text>
<text text-anchor="middle" x="205" y="-111.8" font-family="Helvetica,sans-Serif" font-size="14.00">class = sim</text>
</g>
<!-- 0&#45;&gt;1 -->
<g id="edge1" class="edge">
<title>0&#45;&gt;1</title>
<path fill="none" stroke="black" d="M265.47,-222.58C258.57,-213.89 251.21,-204.63 244.08,-195.67"/>
<polygon fill="black" stroke="black" points="246.31,-193.85 237.35,-188.2 240.83,-198.21 246.31,-193.85"/>
<text text-anchor="middle" x="234.51" y="-208.34" font-family="Helvetica,sans-Serif" font-size="14.00">True</text>
</g>
<!-- 4 -->
<g id="node5" class="node">
<title>4</title>
<path fill="#f3c3a0" stroke="black" d="M475,-187C475,-187 309,-187 309,-187 303,-187 297,-181 297,-175 297,-175 297,-116 297,-116 297,-110 303,-104 309,-104 309,-104 475,-104 475,-104 481,-104 487,-110 487,-116 487,-116 487,-175 487,-175 487,-181 481,-187 475,-187"/>
<text text-anchor="middle" x="392" y="-171.8" font-family="Helvetica,sans-Serif" font-size="14.00">km_por_ano &lt;= 24124.006</text>
<text text-anchor="middle" x="392" y="-156.8" font-family="Helvetica,sans-Serif" font-size="14.00">gini = 0.45</text>
<text text-anchor="middle" x="392" y="-141.8" font-family="Helvetica,sans-Serif" font-size="14.00">samples = 5653</text>
<text text-anchor="middle" x="392" y="-126.8" font-family="Helvetica,sans-Serif" font-size="14.00">value = [3716.0, 1937.0]</text>
<text text-anchor="middle" x="392" y="-111.8" font-family="Helvetica,sans-Serif" font-size="14.00">class = não</text>
</g>
<!-- 0&#45;&gt;4 -->
<g id="edge4" class="edge">
<title>0&#45;&gt;4</title>
<path fill="none" stroke="black" d="M330.88,-222.58C337.86,-213.89 345.3,-204.63 352.5,-195.67"/>
<polygon fill="black" stroke="black" points="355.77,-198.19 359.3,-188.2 350.31,-193.8 355.77,-198.19"/>
<text text-anchor="middle" x="362.01" y="-208.35" font-family="Helvetica,sans-Serif" font-size="14.00">False</text>
</g>
<!-- 2 -->
<g id="node3" class="node">
<title>2</title>
<path fill="#399de5" stroke="black" d="M110,-68C110,-68 12,-68 12,-68 6,-68 0,-62 0,-56 0,-56 0,-12 0,-12 0,-6 6,0 12,0 12,0 110,0 110,0 116,0 122,-6 122,-12 122,-12 122,-56 122,-56 122,-62 116,-68 110,-68"/>
<text text-anchor="middle" x="61" y="-52.8" font-family="Helvetica,sans-Serif" font-size="14.00">gini = 0.0</text>
<text text-anchor="middle" x="61" y="-37.8" font-family="Helvetica,sans-Serif" font-size="14.00">samples = 1935</text>
<text text-anchor="middle" x="61" y="-22.8" font-family="Helvetica,sans-Serif" font-size="14.00">value = [0, 1935]</text>
<text text-anchor="middle" x="61" y="-7.8" font-family="Helvetica,sans-Serif" font-size="14.00">class = sim</text>
</g>
<!-- 1&#45;&gt;2 -->
<g id="edge2" class="edge">
<title>1&#45;&gt;2</title>
<path fill="none" stroke="black" d="M151.38,-103.73C138.91,-94.24 125.64,-84.16 113.23,-74.72"/>
<polygon fill="black" stroke="black" points="115.87,-71.57 105.79,-68.3 111.63,-77.14 115.87,-71.57"/>
</g>
<!-- 3 -->
<g id="node4" class="node">
<title>3</title>
<path fill="#6bb6ec" stroke="black" d="M266,-68C266,-68 152,-68 152,-68 146,-68 140,-62 140,-56 140,-56 140,-12 140,-12 140,-6 146,0 152,0 152,0 266,0 266,0 272,0 278,-6 278,-12 278,-12 278,-56 278,-56 278,-62 272,-68 266,-68"/>
<text text-anchor="middle" x="209" y="-52.8" font-family="Helvetica,sans-Serif" font-size="14.00">gini = 0.321</text>
<text text-anchor="middle" x="209" y="-37.8" font-family="Helvetica,sans-Serif" font-size="14.00">samples = 2412</text>
<text text-anchor="middle" x="209" y="-22.8" font-family="Helvetica,sans-Serif" font-size="14.00">value = [484, 1928]</text>
<text text-anchor="middle" x="209" y="-7.8" font-family="Helvetica,sans-Serif" font-size="14.00">class = sim</text>
</g>
<!-- 1&#45;&gt;3 -->
<g id="edge3" class="edge">
<title>1&#45;&gt;3</title>
<path fill="none" stroke="black" d="M206.49,-103.73C206.78,-95.7 207.09,-87.24 207.39,-79.11"/>
<polygon fill="black" stroke="black" points="210.92,-79.42 207.78,-69.3 203.92,-79.17 210.92,-79.42"/>
</g>
<!-- 5 -->
<g id="node6" class="node">
<title>5</title>
<path fill="#fcefe5" stroke="black" d="M461,-68C461,-68 315,-68 315,-68 309,-68 303,-62 303,-56 303,-56 303,-12 303,-12 303,-6 309,0 315,0 315,0 461,0 461,0 467,0 473,-6 473,-12 473,-12 473,-56 473,-56 473,-62 467,-68 461,-68"/>
<text text-anchor="middle" x="388" y="-52.8" font-family="Helvetica,sans-Serif" font-size="14.00">gini = 0.498</text>
<text text-anchor="middle" x="388" y="-37.8" font-family="Helvetica,sans-Serif" font-size="14.00">samples = 3513</text>
<text text-anchor="middle" x="388" y="-22.8" font-family="Helvetica,sans-Serif" font-size="14.00">value = [1879.0, 1634.0]</text>
<text text-anchor="middle" x="388" y="-7.8" font-family="Helvetica,sans-Serif" font-size="14.00">class = não</text>
</g>
<!-- 4&#45;&gt;5 -->
<g id="edge5" class="edge">
<title>4&#45;&gt;5</title>
<path fill="none" stroke="black" d="M390.51,-103.73C390.22,-95.7 389.91,-87.24 389.61,-79.11"/>
<polygon fill="black" stroke="black" points="393.08,-79.17 389.22,-69.3 386.08,-79.42 393.08,-79.17"/>
</g>
<!-- 6 -->
<g id="node7" class="node">
<title>6</title>
<path fill="#e9965a" stroke="black" d="M617,-68C617,-68 503,-68 503,-68 497,-68 491,-62 491,-56 491,-56 491,-12 491,-12 491,-6 497,0 503,0 503,0 617,0 617,0 623,0 629,-6 629,-12 629,-12 629,-56 629,-56 629,-62 623,-68 617,-68"/>
<text text-anchor="middle" x="560" y="-52.8" font-family="Helvetica,sans-Serif" font-size="14.00">gini = 0.243</text>
<text text-anchor="middle" x="560" y="-37.8" font-family="Helvetica,sans-Serif" font-size="14.00">samples = 2140</text>
<text text-anchor="middle" x="560" y="-22.8" font-family="Helvetica,sans-Serif" font-size="14.00">value = [1837, 303]</text>
<text text-anchor="middle" x="560" y="-7.8" font-family="Helvetica,sans-Serif" font-size="14.00">class = não</text>
</g>
<!-- 4&#45;&gt;6 -->
<g id="edge6" class="edge">
<title>4&#45;&gt;6</title>
<path fill="none" stroke="black" d="M454.56,-103.73C469.31,-94.11 485.02,-83.87 499.67,-74.32"/>
<polygon fill="black" stroke="black" points="501.18,-76.87 507.64,-68.47 497.35,-71 501.18,-76.87"/>
</g>
</g>
</svg>
